<?xml version="1.0" encoding="UTF-8" standalone="no"?>
<svg
   xmlns:dc="http://purl.org/dc/elements/1.1/"
   xmlns:cc="http://creativecommons.org/ns#"
   xmlns:rdf="http://www.w3.org/1999/02/22-rdf-syntax-ns#"
   xmlns:svg="http://www.w3.org/2000/svg"
   xmlns="http://www.w3.org/2000/svg"
   xmlns:xlink="http://www.w3.org/1999/xlink"
   xmlns:sodipodi="http://sodipodi.sourceforge.net/DTD/sodipodi-0.dtd"
   xmlns:inkscape="http://www.inkscape.org/namespaces/inkscape"
   width="99.746399pt"
   height="180.67773pt"
   viewBox="0 0 132.99519 240.90363"
   version="1.1"
   id="svg160"
   sodipodi:docname="dot-net.svg"
   inkscape:version="0.92.4 (5da689c313, 2019-01-14)">
  <metadata
     id="metadata164">
    <rdf:RDF>
      <cc:Work
         rdf:about="">
        <dc:format>image/svg+xml</dc:format>
        <dc:type
           rdf:resource="http://purl.org/dc/dcmitype/StillImage" />
        <dc:title>netframework</dc:title>
      </cc:Work>
    </rdf:RDF>
  </metadata>
  <sodipodi:namedview
     pagecolor="#ffffff"
     bordercolor="#666666"
     borderopacity="1"
     objecttolerance="10"
     gridtolerance="10"
     guidetolerance="10"
     inkscape:pageopacity="0"
     inkscape:pageshadow="2"
     inkscape:window-width="1920"
     inkscape:window-height="986"
     id="namedview162"
     showgrid="false"
     inkscape:zoom="2.4455128"
     inkscape:cx="138.9659"
     inkscape:cy="125.20772"
     inkscape:window-x="2869"
     inkscape:window-y="-11"
     inkscape:window-maximized="1"
     inkscape:current-layer="svg160"
     inkscape:snap-bbox="true"
     inkscape:snap-global="true"
     inkscape:bbox-paths="true"
     inkscape:bbox-nodes="true"
     inkscape:snap-bbox-edge-midpoints="true"
     inkscape:snap-bbox-midpoints="true"
     units="pt" />
  <title
     id="title88">netframework</title>
  <desc
     id="desc90">Created using Figma</desc>
  <g
     id="Canvas"
     transform="translate(-4058,-243.4297)">
    <g
       id="netframework">
      <g
         id="Vector">
        <use
           xlink:href="#path0_fill"
           transform="translate(4058,447.877)"
           id="use92"
           style="fill:#621ee5"
           x="0"
           y="0"
           width="100%"
           height="100%" />
      </g>
      <g
         id="g97">
        <use
           xlink:href="#path1_fill"
           transform="translate(4075.55,406)"
           id="use95"
           style="fill:#621ee5"
           x="0"
           y="0"
           width="100%"
           height="100%" />
      </g>
      <g
         id="g101">
        <use
           xlink:href="#path2_fill"
           transform="translate(4127.17,406)"
           id="use99"
           style="fill:#621ee5"
           x="0"
           y="0"
           width="100%"
           height="100%" />
      </g>
      <g
         id="g105">
        <use
           xlink:href="#path3_fill"
           transform="translate(4157.3,406)"
           id="use103"
           style="fill:#621ee5"
           x="0"
           y="0"
           width="100%"
           height="100%" />
      </g>
      <g
         id="g109">
        <use
           xlink:href="#path4_fill"
           transform="translate(4064.7,464.757)"
           id="use107"
           style="fill:#621ee5"
           x="0"
           y="0"
           width="100%"
           height="100%" />
      </g>
      <g
         id="g113">
        <use
           xlink:href="#path5_fill"
           transform="translate(4077.44,469.981)"
           id="use111"
           style="fill:#621ee5"
           x="0"
           y="0"
           width="100%"
           height="100%" />
      </g>
      <g
         id="g117">
        <use
           xlink:href="#path6_fill"
           transform="translate(4086.22,469.895)"
           id="use115"
           style="fill:#621ee5"
           x="0"
           y="0"
           width="100%"
           height="100%" />
      </g>
      <g
         id="g121">
        <use
           xlink:href="#path7_fill"
           transform="translate(4100.76,469.926)"
           id="use119"
           style="fill:#621ee5"
           x="0"
           y="0"
           width="100%"
           height="100%" />
      </g>
      <g
         id="g125">
        <use
           xlink:href="#path8_fill"
           transform="translate(4122.28,469.813)"
           id="use123"
           style="fill:#621ee5"
           x="0"
           y="0"
           width="100%"
           height="100%" />
      </g>
      <g
         id="g129">
        <use
           xlink:href="#path9_fill"
           transform="translate(4135.74,470.303)"
           id="use127"
           style="fill:#621ee5"
           x="0"
           y="0"
           width="100%"
           height="100%" />
      </g>
      <g
         id="g133">
        <use
           xlink:href="#path10_fill"
           transform="translate(4155.01,469.921)"
           id="use131"
           style="fill:#621ee5"
           x="0"
           y="0"
           width="100%"
           height="100%" />
      </g>
      <g
         id="g137">
        <use
           xlink:href="#path11_fill"
           transform="translate(4171.58,470.061)"
           id="use135"
           style="fill:#621ee5"
           x="0"
           y="0"
           width="100%"
           height="100%" />
      </g>
      <g
         id="g141">
        <use
           xlink:href="#path12_fill"
           transform="translate(4181.08,463.819)"
           id="use139"
           style="fill:#621ee5"
           x="0"
           y="0"
           width="100%"
           height="100%" />
      </g>
    </g>
  </g>
  <defs
     id="defs158">
    <path
       id="path0_fill"
       d="M 3.75015,7.63622 C 3.25372,7.6441 2.76107,7.54817 2.30332,7.35448 1.84556,7.16079 1.43266,6.87356 1.0907,6.51093 0.739355,6.16123 0.461688,5.74367 0.274328,5.28329 0.0869693,4.82291 -0.00622722,4.32917 3.22113e-4,3.83164 -0.00322529,3.33454 0.0913438,2.84168 0.278531,2.38172 0.465718,1.92176 0.74179,1.50388 1.0907,1.15236 1.4293,0.78356 1.84097,0.490452 2.29907,0.291998 2.75718,0.0935436 3.25152,-0.00583876 3.75015,2.69502e-4 4.24805,-9.57722e-4 4.74092,0.100632 5.19833,0.298784 5.65573,0.496936 6.06797,0.787446 6.4096,1.15236 6.76452,1.50074 7.0463,1.91743 7.23818,2.37771 7.43007,2.83798 7.52814,3.33243 7.52657,3.83164 7.53121,4.33132 7.43454,4.82667 7.24248,5.28738 7.05041,5.74809 6.767,6.16445 6.4096,6.51093 6.06473,6.86973 5.65129,7.15442 5.19421,7.34782 4.73713,7.54123 4.2459,7.63934 3.75015,7.63622 Z"
       inkscape:connector-curvature="0" />
    <path
       id="path1_fill"
       d="M 39.0407,48.8433 H 32.073 L 7.15392,9.88655 C 6.53321,8.9267 6.01611,7.90276 5.61144,6.83217 H 5.39869 C 5.6355,9.05643 5.72435,11.2942 5.66463,13.5304 V 48.8433 H 4.058e-7 V 1.22648e-6 H 7.36668 L 31.6209,38.2601 c 1.0106,1.5898 1.6666,2.6793 1.968,3.2688 h 0.1329 C 33.4412,39.1464 33.3257,36.7471 33.3761,34.3484 V 1.22648e-6 h 5.6646 z"
       inkscape:connector-curvature="0" />
    <path
       id="path2_fill"
       d="M 25.7701,48.8433 H 0 V 1.22648e-6 H 24.5733 V 5.17102 H 5.79761 V 21.4075 H 23.2968 v 5.1442 H 5.79761 v 16.933 H 25.7967 Z"
       inkscape:connector-curvature="0" />
    <path
       id="path3_fill"
       d="M 33.6952,5.17102 H 19.6267 V 48.8433 H 13.9355 V 5.17102 H 4.8696e-6 V 1.22648e-6 H 33.6952 Z"
       inkscape:connector-curvature="0" />
    <path
       id="path4_fill"
       d="M 1.30313,1.31284 V 8.84163 H 8.19111 V 10.0205 H 1.30313 V 18.755 H 6.087e-7 V 2.04413e-6 H 8.6964 V 1.17888 Z"
       inkscape:connector-curvature="0" />
    <path
       id="path5_fill"
       d="M 6.3029,1.52755 C 5.89108,1.2356 5.39677,1.08527 4.89339,1.09886 4.34664,1.11179 3.81292,1.26968 3.34603,1.5566 2.87914,1.84353 2.49556,2.24936 2.23394,2.73322 1.44549,4.14353 1.07623,5.75253 1.17016,7.36838 V 13.6647 H 5.0725e-7 V 0.268281 H 1.17016 V 3.24229 C 1.4082,2.32352 1.90732,1.49476 2.60626,0.857727 3.23726,0.296994 4.05204,-0.0084383 4.89339,3.57249e-4 5.3479,-0.0060896 5.79937,0.0757826 6.22312,0.241493 Z"
       inkscape:connector-curvature="0" />
    <path
       id="path6_fill"
       d="M 8.64386,13.7509 V 11.0717 C 8.23465,11.9619 7.59071,12.7218 6.78225,13.2687 5.99845,13.8078 5.07188,14.0972 4.12279,14.0992 3.57648,14.1291 3.0297,14.0497 2.51395,13.8658 1.99819,13.6819 1.52364,13.397 1.11762,13.0275 0.756365,12.684 0.470387,12.2682 0.278031,11.8068 0.0856757,11.3454 -0.00880719,10.8486 6.46492e-4,10.3482 6.46492e-4,8.00834 1.53426,6.59725 4.6015,6.11498 L 8.69705,5.49874 C 8.69705,2.62298 7.62441,1.1851 5.47911,1.1851 3.84722,1.18438 2.27348,1.79565 1.06443,2.89984 V 1.45303 C 1.66637,1.00085 2.34108,0.656446 3.05901,0.434897 3.82899,0.164093 4.63708,0.0193629 5.45252,0.00621267 6.04141,-0.0267105 6.63026,0.0714573 7.17724,0.29373 7.72421,0.516002 8.21587,0.856921 8.61727,1.29227 9.43955,2.34885 9.83817,3.67794 9.73424,5.01648 V 13.7241 Z M 4.97382,7.07952 C 3.93518,7.15578 2.93085,7.48693 2.04843,8.04406 1.52293,8.60582 1.23027,9.34859 1.23027,10.1205 c 0,0.7719 0.29266,1.5147 0.81816,2.0764 0.29452,0.2683 0.63889,0.475 1.01319,0.6084 0.37431,0.1334 0.77113,0.1907 1.16755,0.1686 0.60265,0.0128 1.20074,-0.1077 1.75214,-0.3531 C 6.5327,12.3755 7.02398,12.0113 7.42051,11.5539 8.29365,10.5277 8.74962,9.20706 8.69705,7.85651 V 6.54367 Z"
       inkscape:connector-curvature="0" />
    <path
       id="path7_fill"
       d="M 16.6216,13.7193 V 5.68142 C 16.7276,4.44761 16.4487,3.21123 15.8237,2.14477 15.5173,1.78723 15.1306,1.5084 14.6959,1.33135 14.2612,1.1543 13.7909,1.08412 13.3238,1.12664 12.8074,1.13975 12.3004,1.2693 11.8402,1.50576 11.38,1.74223 10.9782,2.0796 10.6644,2.49308 9.88758,3.45082 9.48134,4.65958 9.52083,5.89577 V 13.7461 H 8.32408 V 5.70821 c 0,-2.98294 -1.12583,-4.4744 -3.3775,-4.4744 C 4.42824,1.23692 3.9178,1.3621 3.45604,1.59935 2.99428,1.83661 2.59398,2.17936 2.28713,2.60024 1.53023,3.61743 1.14508,4.86668 1.19675,6.13689 V 13.8532 H -8.116e-7 V 0.456818 H 1.19675 V 2.68063 C 1.54029,1.88187 2.10895,1.20223 2.83224,0.725969 3.55553,0.249706 4.40164,-0.00224177 5.26571,0.00134481 6.17391,-0.0228687 7.0607,0.281269 7.7656,0.858714 8.4545,1.42861 8.94004,2.20938 9.14851,3.08251 9.51775,2.17676 10.1359,1.39598 10.9303,0.831916 c 0.7399,-0.523784 1.6223,-0.8045094 2.5265,-0.8037829 2.9077,0 4.3615,1.7861869 4.3615,5.3585669 v 8.279 z"
       inkscape:connector-curvature="0" />
    <path
       id="path8_fill"
       d="m 1.24471,7.18776 c -0.08785,1.54398 0.36381,3.07024 1.27654,4.31364 0.42089,0.514 0.9549,0.922 1.55966,1.1918 0.60475,0.2697 1.26359,0.3937 1.92422,0.3622 1.59839,-0.0413 3.13579,-0.6268 4.36147,-1.6612 v 1.2861 C 9.02738,13.6515 7.41586,14.1676 5.76579,14.1539 4.98174,14.1729 4.20321,14.0171 3.48597,13.6975 2.76872,13.3779 2.13051,12.9024 1.61704,12.3052 0.447748,10.7782 -0.120506,8.8699 0.0213687,6.94662 -0.032623,5.15744 0.552454,3.40814 1.67023,2.01674 2.18482,1.36851 2.84184,0.849583 3.58949,0.500865 4.33715,0.152147 5.15499,-0.0168235 5.97854,0.00727895 6.70502,-0.0342681 7.43066,0.102514 8.09309,0.405864 8.75552,0.709214 9.33494,1.17007 9.78155,1.74882 10.7369,3.15635 11.2043,4.84219 11.1113,6.54472 V 7.08058 Z M 9.83475,6.08925 C 9.85977,4.80199 9.46763,3.54159 8.71777,2.49901 8.39188,2.05749 7.96608,1.70073 7.47577,1.45841 6.98545,1.21608 6.44479,1.09519 5.89876,1.10578 5.32611,1.08973 4.75637,1.19334 4.22543,1.41006 3.69448,1.62679 3.21384,1.95195 2.81379,2.36505 1.92376,3.36764 1.39041,4.64024 1.2979,5.98208 Z"
       inkscape:connector-curvature="0" />
    <path
       id="path9_fill"
       d="M 12.8717,13.3428 H 11.7548 L 8.85597,3.29552 C 8.75951,2.92578 8.68843,2.5498 8.64322,2.17022 v 0 C 8.58534,2.54326 8.49637,2.91073 8.37727,3.26873 L 5.13274,13.3964 H 4.01577 L 3.2464e-6,1.22648e-6 H 1.32973 L 4.41469,10.7171 c 0.09449,0.3689 0.15678,0.7455 0.18616,1.1253 v 0 C 4.6428,11.4602 4.72299,11.0831 4.8402,10.7171 L 8.21771,1.22648e-6 H 9.04213 L 12.0473,10.7171 c 0.09,0.3699 0.1523,0.746 0.1862,1.1253 v 0 c 0.0215,-0.3829 0.0931,-0.7612 0.2127,-1.1253 L 15.611,1.22648e-6 h 1.2233 z"
       inkscape:connector-curvature="0" />
    <path
       id="path10_fill"
       d="M 6.33736,14.0463 C 5.4768,14.0858 4.6182,13.9334 3.82288,13.5999 3.02755,13.2665 2.31513,12.7602 1.73651,12.1172 0.610814,10.6524 -4.65004e-6,8.85233 -4.65004e-6,6.99979 -4.65004e-6,5.14725 0.610814,3.3472 1.73651,1.88236 2.3378,1.25771 3.06309,0.767809 3.86503,0.444643 4.66696,0.121477 5.52752,-0.0276913 6.39055,0.00686188 7.23072,-0.0345762 8.06956,0.112128 8.84671,0.436426 9.62386,0.760723 10.32,1.25455 10.885,1.88236 c 1.1691,1.45695 1.757,3.30069 1.6489,5.17101 0.0868,1.83923 -0.5107,3.64493 -1.6755,5.06383 -0.5676,0.6352 -1.26662,1.1372 -2.0478,1.4705 -0.78119,0.3333 -1.62546,0.4899 -2.47324,0.4586 z m 0,-12.94093 C 5.63294,1.07508 4.93071,1.20369 4.28195,1.48181 3.63319,1.75994 3.05428,2.18056 2.58753,2.71293 1.5858,3.9677 1.08337,5.55311 1.17802,7.16054 c -0.07918,1.531 0.4036,3.03786 1.35632,4.23326 0.46023,0.5333 1.03418,0.9549 1.67892,1.2333 0.64473,0.2784 1.34358,0.4063 2.04432,0.3743 0.69516,0.0392 1.38998,-0.083 2.03089,-0.3571 0.64091,-0.274 1.2108,-0.6927 1.66574,-1.2237 C 10.7955,10.1168 11.2432,8.59506 11.2432,7.03998 11.2432,5.48489 10.7955,3.96319 9.95421,2.65935 9.52396,2.13535 8.98333,1.71443 8.37154,1.4271 7.75974,1.13978 7.09213,0.993266 6.41715,0.998193 Z"
       inkscape:connector-curvature="0" />
    <path
       id="path11_fill"
       d="M 6.27631,1.44717 C 5.86449,1.15522 5.37017,1.00489 4.86679,1.01848 4.31943,1.02867 3.78463,1.18542 3.31727,1.47264 2.8499,1.75986 2.46682,2.16719 2.20734,2.65284 1.41889,4.06315 1.04963,5.67215 1.14357,7.288 v 6.2963 H 2.029e-6 V 0.187903 H 1.17016 V 3.16191 C 1.43692,2.26582 1.95391,1.46596 2.65945,0.857723 3.29046,0.29699 4.10523,-0.00844157 4.94658,3.53978e-4 5.40109,-0.00609287 5.85256,0.0757794 6.27631,0.24149 Z"
       inkscape:connector-curvature="0" />
    <path
       id="path12_fill"
       d="M 7.55284,19.8267 1.19676,13.2089 v 6.6178 H 1.2174e-6 V -4.08826e-6 H 1.19676 V 12.7802 L 7.2603,6.43028 h 1.54249 l -6.3295,6.48382 6.80819,6.9126 z"
       inkscape:connector-curvature="0" />
    <path
       d="M 3.52459,7.14268 C 3.05803,7.15005 2.595,7.06032 2.16478,6.87915 1.73456,6.69798 1.34649,6.42931 1.0251,6.09012 0.694886,5.76302 0.433919,5.37245 0.257829,4.94183 0.0817385,4.5112 -0.00585268,4.04937 3.0274e-4,3.584 -0.00303131,3.11902 0.0858499,2.65802 0.261779,2.22779 0.437707,1.79756 0.697175,1.40668 1.0251,1.07788 1.34334,0.732917 1.73024,0.458753 2.16079,0.273125 2.59135,0.0874978 3.05596,-0.00546139 3.52459,2.52084e-4 3.99255,-8.95823e-4 4.45577,0.094128 4.88567,0.279473 5.31557,0.464819 5.70301,0.736552 6.02409,1.07788 6.35767,1.40374 6.6225,1.79351 6.80284,2.22403 6.98318,2.65455 7.07536,3.11705 7.07388,3.584 7.07824,4.05138 6.98739,4.51472 6.80687,4.94565 6.62636,5.37658 6.35999,5.76603 6.02409,6.09012 5.69997,6.42573 5.31139,6.69202 4.8818,6.87292 4.45221,7.05383 3.99053,7.1456 3.52459,7.14268 Z"
       id="path0_fill-1"
       inkscape:connector-curvature="0" />
    <path
       d="M 36.6926,45.6865 H 30.1439 L 6.72365,9.24757 C 6.14026,8.34976 5.65427,7.39199 5.27394,6.3906 H 5.07398 c 0.22257,2.0805 0.30608,4.1736 0.24995,6.2653 V 45.6865 H 3.81393e-7 V 1.14721e-6 H 6.92361 L 29.719,35.7873 c 0.9498,1.487 1.5664,2.5062 1.8497,3.0575 h 0.1249 C 31.4299,36.6163 31.3213,34.3721 31.3687,32.1284 V 1.14721e-6 h 5.3239 z"
       id="path1_fill-6"
       inkscape:connector-curvature="0" />
    <path
       d="M 24.2201,45.6865 H 0 V 1.14721e-6 H 23.0954 V 4.83681 H 5.4489 V 20.0239 h 16.4467 v 4.8117 H 5.4489 v 15.8387 h 18.7962 z"
       id="path2_fill-9"
       inkscape:connector-curvature="0" />
    <path
       d="M 31.6686,4.83681 H 18.4213 V 45.6865 H 13.0974 V 4.83681 H 4.57672e-6 V 1.14721e-6 H 31.6686 Z"
       id="path3_fill-7"
       inkscape:connector-curvature="0" />
    <path
       d="m 15.6832,20.4571 c -1.8046,0.8763 -3.7951,1.2978 -5.79888,1.228 C 8.5528,21.7453 7.22385,21.5192 5.98661,21.0221 4.74937,20.5251 3.63245,19.7685 2.71077,18.8031 0.874207,16.7418 -0.0934628,14.0467 0.0113096,11.2847 -0.0559223,9.78927 0.177142,8.29549 0.696673,6.89206 1.2162,5.48862 2.01161,4.20413 3.0357,3.11479 4.0337,2.08969 5.23353,1.28403 6.55889,0.749027 7.88425,0.214027 9.30614,-0.0385992 10.7342,0.00721284 12.4431,-0.0513441 14.1456,0.247366 15.7331,0.88435 V 3.39047 C 14.2046,2.54202 12.4811,2.10998 10.7342,2.13741 9.63283,2.10631 8.5378,2.31414 7.52401,2.74668 6.51022,3.17922 5.60161,3.82626 4.86034,4.64353 3.30151,6.42411 2.49475,8.74292 2.61078,11.1093 c -0.11671,2.2417 0.63561,4.4417 2.09958,6.14 0.70222,0.7571 1.55948,1.3529 2.51296,1.7466 0.95349,0.3936 1.98063,0.5758 3.01098,0.534 1.9191,0.0503 3.8144,-0.4356 5.4739,-1.4035 z"
       id="path4_fill-0"
       inkscape:connector-curvature="0" />
    <path
       d="M 7.31223,15.8733 C 6.31726,15.9056 5.32699,15.7231 4.40845,15.3383 3.48992,14.9535 2.66458,14.3753 1.9883,13.6428 0.621529,12.1135 -0.0880705,10.1051 0.013704,8.05418 -0.0487133,6.97968 0.102551,5.90345 0.458704,4.8881 0.814856,3.87274 1.36879,2.93851 2.08829,2.13974 2.82258,1.42121 3.69612,0.861412 4.65487,0.495003 5.61362,0.128593 6.63717,-0.0366318 7.66217,0.00954199 8.63103,-0.0421879 9.59959,0.116934 10.5013,0.475988 c 0.9018,0.359054 1.7153,0.909532 2.3848,1.613622 1.3285,1.60524 1.9986,3.65682 1.8746,5.73901 0.1049,2.11318 -0.6221,4.18308 -2.0246,5.76408 -0.689,0.7467 -1.5296,1.3366 -2.4653,1.73 -0.93559,0.3934 -1.94446,0.5811 -2.95857,0.5506 z M 7.4872,2.16479 C 6.79965,2.13578 6.11444,2.26268 5.48259,2.53605 4.85075,2.80942 4.28857,3.2222 3.83793,3.74365 2.87616,4.98534 2.39656,6.53482 2.48821,8.1043 c -0.0873,1.5228 0.39385,3.0237 1.34972,4.2103 0.45532,0.5141 1.01897,0.9202 1.65012,1.1889 0.63116,0.2687 1.31403,0.3934 1.99915,0.3649 0.67074,0.0397 1.34164,-0.0752 1.96122,-0.3359 0.61958,-0.2606 1.17138,-0.6601 1.61308,-1.1678 0.9087,-1.245 1.3512,-2.77109 1.2497,-4.31052 C 12.4101,6.50725 11.9681,4.97415 11.0615,3.71859 10.6259,3.20031 10.0765,2.79028 9.45639,2.52069 8.83624,2.2511 8.16221,2.12928 7.4872,2.16479 Z"
       id="path5_fill-1"
       inkscape:connector-curvature="0" />
    <path
       d="M 7.84842,2.68552 C 7.30856,2.3309 6.66758,2.16363 6.02379,2.20935 5.52027,2.22772 5.02896,2.36989 4.59311,2.62336 4.15726,2.87682 3.79023,3.23381 3.52429,3.6629 2.78036,4.84384 2.42214,6.22794 2.4995,7.62256 V 15.2913 H 3.05114e-6 V 0.254579 H 2.4995 V 3.38723 C 2.77428,2.41793 3.32081,1.5481 4.07418,0.881108 4.72604,0.313886 5.5606,0.00232891 6.42371,0.00397119 6.90688,-0.0178001 7.3899,0.0501667 7.84842,0.204456 Z"
       id="path6_fill-3"
       inkscape:connector-curvature="0" />
    <path
       d="M 13.163,8.52967 H 2.59012 c -0.07094,1.40098 0.38382,2.77783 1.27474,3.85943 0.46331,0.4633 1.01894,0.8233 1.63056,1.0565 0.61162,0.2332 1.26545,0.3344 1.91872,0.2968 1.6944,-0.0169 3.33316,-0.6088 4.64906,-1.6791 v 2.2555 C 10.5178,15.3401 8.68781,15.8405 6.83926,15.7473 5.90655,15.7945 4.97495,15.6348 4.11086,15.2796 3.24677,14.9243 2.47148,14.3824 1.84027,13.6923 0.539044,12.0649 -0.1114,10.0101 0.015635,7.92819 -0.074201,5.84117 0.631824,3.79814 1.99024,2.21425 2.60845,1.49823 3.37766,0.928922 4.24221,0.547509 5.10677,0.166096 6.04507,-0.0178926 6.98923,0.00886537 7.84176,-0.0390254 8.69401,0.107483 9.48193,0.437377 10.2699,0.76727 10.9729,1.27197 11.5383,1.91352 12.6892,3.43514 13.2569,5.32053 13.138,7.22649 Z M 10.6635,6.49971 C 10.7142,5.33844 10.3608,4.19562 9.6637,3.26683 9.32167,2.87936 8.89672,2.57442 8.42061,2.37479 7.94451,2.17517 7.42956,2.08601 6.91425,2.114 6.37636,2.10739 5.84298,2.21317 5.3481,2.42459 4.85322,2.63601 4.40766,2.94845 4.03983,3.34201 3.21716,4.2146 2.69959,5.33162 2.56512,6.52478 Z"
       id="path7_fill-4"
       inkscape:connector-curvature="0" />
  </defs>
  <g
     transform="matrix(1.0627637,0,0,1.0627637,-3845.0423,-439.4297)"
     id="Canvas-2">
    <g
       id="netcore">
      <g
         id="Vector-9">
        <use
           id="use223"
           transform="translate(3618,453.17)"
           xlink:href="#path0_fill-1"
           style="fill:#621ee5"
           x="0"
           y="0"
           width="100%"
           height="100%" />
      </g>
      <g
         id="g228">
        <use
           id="use226"
           transform="translate(3634.5,414)"
           xlink:href="#path1_fill-6"
           style="fill:#621ee5"
           x="0"
           y="0"
           width="100%"
           height="100%" />
      </g>
      <g
         id="g232">
        <use
           id="use230"
           transform="translate(3683.01,414)"
           xlink:href="#path2_fill-9"
           style="fill:#621ee5"
           x="0"
           y="0"
           width="100%"
           height="100%" />
      </g>
      <g
         id="g236">
        <use
           id="use234"
           transform="translate(3711.33,414)"
           xlink:href="#path3_fill-7"
           style="fill:#621ee5"
           x="0"
           y="0"
           width="100%"
           height="100%" />
      </g>
      <g
         id="g240">
        <use
           id="use238"
           transform="translate(3652.63,470.305)"
           xlink:href="#path4_fill-0"
           style="fill:#621ee5"
           x="0"
           y="0"
           width="100%"
           height="100%" />
      </g>
      <g
         id="g244">
        <use
           id="use242"
           transform="translate(3671.23,476.117)"
           xlink:href="#path5_fill-1"
           style="fill:#621ee5"
           x="0"
           y="0"
           width="100%"
           height="100%" />
      </g>
      <g
         id="g248">
        <use
           id="use246"
           transform="translate(3689.81,476.348)"
           xlink:href="#path6_fill-3"
           style="fill:#621ee5"
           x="0"
           y="0"
           width="100%"
           height="100%" />
      </g>
      <g
         id="g252">
        <use
           id="use250"
           transform="translate(3699.14,476.218)"
           xlink:href="#path7_fill-4"
           style="fill:#621ee5"
           x="0"
           y="0"
           width="100%"
           height="100%" />
      </g>
    </g>
  </g>
</svg>
