<svg
   xmlns:dc="http://purl.org/dc/elements/1.1/"
   xmlns:cc="http://creativecommons.org/ns#"
   xmlns:rdf="http://www.w3.org/1999/02/22-rdf-syntax-ns#"
   xmlns:svg="http://www.w3.org/2000/svg"
   xmlns="http://www.w3.org/2000/svg"
   xmlns:sodipodi="http://sodipodi.sourceforge.net/DTD/sodipodi-0.dtd"
   xmlns:inkscape="http://www.inkscape.org/namespaces/inkscape"
   viewBox="0 0 97.490692 9.9342785"
   version="1.1"
   id="whiscodeLogo"
   inkscape:version="0.92.4 (5da689c313, 2019-01-14)">

  <defs id="defs2" />
  <g
     inkscape:label="tags"
     inkscape:groupmode="layer"
     id="chevrons"
     transform="translate(-42.372075,-59.308442)"
     style="display:inline">
    <g
       aria-label="&lt;/WHISCODE&gt;"
       transform="matrix(0.26458333,0,0,0.26458333,4.0090429,22.049736)"
       style="font-style:normal;font-weight:normal;font-size:60px;line-height:1.25;font-family:sans-serif;letter-spacing:0px;word-spacing:0px;fill:#000000;fill-opacity:1;stroke:none"
       id="flowRoot4493">
      <path
         id="path4535"
         style="font-size:64px;fill:#6acd5e;fill-opacity:1"
         d="m 150.49414,157.40625 -3.71875,1.15625 v 0.1875 l 3.71875,1.125 20.65625,9.46875 v 1.84375 l -26.15625,-11.84375 v -1.5625 l 26.15625,-11.8125 v 1.8125 z m 32.17969,20.96094 h -1.38281 l 14.25,-37.05469 h 1.38281 z M 487.33789,147.75 v -1.8125 l 26.125,11.8125 v 1.5625 l -26.125,11.84375 v -1.84375 l 20.625,-9.59375 3.6875,-1.125 v -0.1875 l -3.6875,-1.15625 z"
         inkscape:connector-curvature="0" />
    </g>
  </g>
  <g
     inkscape:label="whiscode"
     id="logoText"
     inkscape:groupmode="layer"
     style="display:inline"
     [@rtlEaseOutElastic]="'in'"
     >
    <path
       id="path4771-2"
       style="font-style:normal;font-weight:normal;font-size:64px;line-height:1.25;font-family:sans-serif;letter-spacing:0px;word-spacing:0px;display:inline;fill:#000000;fill-opacity:1;stroke:none;stroke-width:0.26458332"
       d="m 82.55828,4.285088 v 0.3348646 h 2.47352 2.834683 V 4.285088 Z M 47.054492,0 c -0.868164,0 -1.585431,0.21083985 -2.151806,0.63251952 -0.56224,0.41754428 -0.84336,0.96531578 -0.84336,1.64331048 0,0.6821301 0.239779,1.1968262 0.719336,1.5440918 0.483693,0.3472656 1.234033,0.6759292 2.251025,0.9859862 1.021125,0.3348646 1.74253,0.6614573 2.16421,0.9797854 0.425812,0.3141925 0.63872,0.7296698 0.63872,1.2464354 0,0.5498359 -0.258382,1.0087226 -0.775148,1.3766602 -0.516763,0.363802 -1.169953,0.5457031 -1.95957,0.5457031 -0.789614,0 -1.486215,-0.1839669 -2.089793,-0.5519044 C 44.404526,8.0305176 44.102734,7.4352049 44.102734,6.6166502 H 43.82368 l -0.01241,0.037207 c -0.02066,0.9095049 0.29559,1.5771659 0.94878,2.0029783 0.653188,0.4216797 1.43247,0.6325196 2.33784,0.6325196 0.868164,0 1.597837,-0.2067058 2.189015,-0.6201172 0.591177,-0.4134115 0.886766,-0.9632487 0.886766,-1.6495117 0,-0.6738594 -0.250116,-1.184424 -0.750339,-1.5316893 C 48.923103,5.1407716 48.16036,4.805908 47.1351,4.4834471 46.080902,4.1733901 45.359497,3.8571289 44.97089,3.5346679 44.586416,3.2080716 44.39418,2.784326 44.39418,2.2634277 c 0,-0.5208984 0.239779,-0.9715169 0.719336,-1.35185545 0.479558,-0.38447132 1.126546,-0.57670897 1.940968,-0.57670897 0.789614,0 1.43247,0.22117645 1.928563,0.66352538 0.496094,0.44234894 0.744141,1.00045704 0.744141,1.67431624 h 0.285255 l 0.01241,-0.037207 C 50.041389,1.8045397 49.774736,1.1575521 49.224903,0.69453124 48.6792,0.23151042 47.955729,0 47.054492,0 Z m 9.254214,0 C 55.320654,0 54.528971,0.36586781 53.933658,1.0976074 53.338346,1.829347 53.040689,2.7863932 53.040689,3.96875 v 1.3518554 c 0,1.1864895 0.297657,2.1456041 0.892969,2.8773437 0.595313,0.7276042 1.386996,1.0914063 2.375048,1.0914063 0.942578,0 1.701189,-0.2439128 2.275832,-0.7317383 0.578766,-0.4919583 0.859894,-1.2009604 0.84336,-2.1270018 l -0.01241,-0.037207 h -0.285253 c 0,0.855763 -0.254249,1.496551 -0.762746,1.9223635 -0.504362,0.4258122 -1.190625,0.6387206 -2.058789,0.6387206 -0.880565,0 -1.589566,-0.3307292 -2.127001,-0.9921875 -0.537434,-0.6655941 -0.80615,-1.5461605 -0.80615,-2.6416995 V 3.9563476 c 0,-1.083138 0.268716,-1.9575019 0.806151,-2.6230957 0.537435,-0.66559108 1.246436,-0.99838862 2.127001,-0.99838862 0.868164,0 1.554427,0.22117645 2.058789,0.66352538 0.508497,0.44234894 0.762746,1.07073434 0.762746,1.88515634 h 0.285253 l 0.01241,-0.037207 C 59.444434,1.9326999 59.163312,1.2299004 58.584538,0.73793944 58.009895,0.24598114 57.251284,0 56.308706,0 Z m 9.620086,0 C 64.866323,0 64.033299,0.35759958 63.429721,1.0728027 62.830273,1.7880059 62.53055,2.7533203 62.53055,3.96875 v 1.3518554 c 0,1.2195625 0.301789,2.1869453 0.90537,2.9021484 0.607716,0.7110677 1.442807,1.0666016 2.505273,1.0666016 1.058333,0 1.889292,-0.3555339 2.492873,-1.0666016 0.60358,-0.7152031 0.905369,-1.6825859 0.905369,-2.9021484 V 3.96875 c 0,-1.2154297 -0.303858,-2.1807441 -0.911571,-2.8959473 C 67.82015,0.35759958 66.987125,0 65.928792,0 Z m -50.022786,0.13022461 2.43706,9.02890629 h 0.378272 l 2.257226,-7.5282227 0.285254,-0.89916993 h 0.03721 l 0.297656,0.89916993 2.238623,7.5282227 h 0.378272 l 2.43086,-9.02890629 h -0.36587 L 24.420215,7.0507325 24.017139,8.514209 h -0.03721 L 23.595459,7.0507325 21.474658,0.13022461 H 21.102587 L 18.969384,7.0507325 18.578711,8.514209 h -0.03721 L 18.15083,7.0507325 16.278076,0.13022461 Z m 13.694254,0 V 9.1591309 h 0.334862 V 4.8493163 h 5.767091 v 4.3098146 h 0.334862 V 0.13022461 H 35.702213 V 4.5144531 H 29.935122 V 0.13022461 Z m 10.500651,0 V 9.1591309 h 0.334862 V 0.13022461 Z m 32.626432,0 v 0.33486327 h 0.334862 2.350246 c 0.938445,0 1.738394,0.34313151 2.399853,1.02939452 0.661458,0.686263 0.992187,1.546159 0.992187,2.5796876 v 1.122412 c 0,1.0459296 -0.330729,1.9120281 -0.992187,2.5982911 -0.661459,0.6862627 -1.461408,1.0293942 -2.399853,1.0293942 H 73.062205 V 3.0943846 h -0.334862 v 6.0647463 h 2.685108 c 1.037664,0 1.918226,-0.3700047 2.641698,-1.1100099 0.723471,-0.7441406 1.085207,-1.694987 1.085207,-2.852539 V 4.0927734 c 0,-1.1534166 -0.361736,-2.1021973 -1.085207,-2.8463379 C 77.330677,0.50229492 76.450115,0.13022461 75.412451,0.13022461 Z m 9.830924,0 v 0.13229166 c 0,-0.0732896 0.059,-0.13229166 0.132292,-0.13229166 z M 65.928792,0.33486328 c 0.983919,0 1.742527,0.32659504 2.27583,0.97978512 0.533302,0.6531901 0.799951,1.5337565 0.799951,2.6416992 v 1.3642578 c 0,1.1203437 -0.264583,2.0071127 -0.79375,2.6603026 -0.529166,0.6490573 -1.285711,0.9735841 -2.26963,0.9735841 -0.983919,0 -1.742527,-0.3265951 -2.275829,-0.9797852 -0.529167,-0.6531901 -0.79375,-1.5378906 -0.79375,-2.6541015 V 3.9563476 c 0,-1.1079427 0.264583,-1.9885091 0.79375,-2.6416992 0.529166,-0.65319008 1.283642,-0.97978512 2.263428,-0.97978512 z M 82.55828,0.1303042 v 0.3348646 c 1.769401,0 3.538802,0 5.308203,0 V 0.1303042 Z m 0,8.6940442 v 0.3348619 h 5.308203 V 8.8243484 c -1.769401,0 -3.538802,0 -5.308203,0 z"
       inkscape:connector-curvature="0" />
  </g>
</svg>
